<svg width="28" height="28" viewBox="0 0 28 28" fill="none" xmlns="http://www.w3.org/2000/svg">
<circle cx="14" cy="14" r="14" fill="white"/>
<circle cx="14" cy="14" r="11" fill="#5F5F5F"/>
<path d="M9.2 9.22222H11L12.2 8H15.8L17 9.22222H18.8C19.1183 9.22222 19.4235 9.35099 19.6485 9.5802C19.8736 9.80941 20 10.1203 20 10.4444V17.7778C20 18.1019 19.8736 18.4128 19.6485 18.642C19.4235 18.8712 19.1183 19 18.8 19H9.2C8.88174 19 8.57652 18.8712 8.35147 18.642C8.12643 18.4128 8 18.1019 8 17.7778V10.4444C8 10.1203 8.12643 9.80941 8.35147 9.5802C8.57652 9.35099 8.88174 9.22222 9.2 9.22222ZM14 11.0556C13.2044 11.0556 12.4413 11.3775 11.8787 11.9505C11.3161 12.5235 11 13.3007 11 14.1111C11 14.9215 11.3161 15.6987 11.8787 16.2717C12.4413 16.8447 13.2044 17.1667 14 17.1667C14.7956 17.1667 15.5587 16.8447 16.1213 16.2717C16.6839 15.6987 17 14.9215 17 14.1111C17 13.3007 16.6839 12.5235 16.1213 11.9505C15.5587 11.3775 14.7956 11.0556 14 11.0556ZM14 12.2778C14.4774 12.2778 14.9352 12.4709 15.2728 12.8147C15.6104 13.1586 15.8 13.6249 15.8 14.1111C15.8 14.5973 15.6104 15.0637 15.2728 15.4075C14.9352 15.7513 14.4774 15.9444 14 15.9444C13.5226 15.9444 13.0648 15.7513 12.7272 15.4075C12.3896 15.0637 12.2 14.5973 12.2 14.1111C12.2 13.6249 12.3896 13.1586 12.7272 12.8147C13.0648 12.4709 13.5226 12.2778 14 12.2778Z" fill="white"/>
</svg>
