<svg width="22" height="22" viewBox="0 0 22 22" fill="none" xmlns="http://www.w3.org/2000/svg">
<path d="M14.1875 10.6451C14.3222 10.6451 14.431 10.6917 14.514 10.785C14.5969 10.8679 14.6383 10.9767 14.6383 11.1114C14.6383 11.2255 14.5969 11.3291 14.514 11.4224C14.431 11.5053 14.3222 11.5467 14.1875 11.5467H11.467V14.3915C11.467 14.5366 11.4204 14.661 11.3271 14.7646C11.2339 14.8579 11.1147 14.9045 10.9696 14.9045C10.8349 14.9045 10.7157 14.8579 10.612 14.7646C10.5188 14.661 10.4721 14.5418 10.4721 14.4071V11.5467H7.76722C7.6325 11.5467 7.52368 11.5053 7.44077 11.4224C7.35786 11.3291 7.31641 11.2151 7.31641 11.0804C7.31641 10.956 7.35786 10.8524 7.44077 10.7694C7.52368 10.6865 7.6325 10.6451 7.76722 10.6451H10.4721V7.81581C10.4721 7.67072 10.5188 7.55154 10.612 7.45827C10.7053 7.365 10.8245 7.31836 10.9696 7.31836C11.125 7.31836 11.2442 7.365 11.3271 7.45827C11.4204 7.54118 11.467 7.65518 11.467 7.80027V10.6451H14.1875Z" fill="#808080"/>
<rect x="2.5" y="2.5" width="17" height="17" rx="3.5" stroke="#808080"/>
</svg>
